<?xml version="1.0" encoding="iso-8859-1"?>
<!-- Uploaded to: SVG Repo, www.svgrepo.com, Generator: SVG Repo Mixer Tools -->
<svg version="1.1" id="Layer_1" xmlns="http://www.w3.org/2000/svg" xmlns:xlink="http://www.w3.org/1999/xlink" 
	 viewBox="0 0 512 512" xml:space="preserve">
<path style="fill:#B3404A;" d="M467.163,512H44.837c-7.586,0-13.734-6.149-13.734-13.734V13.734C31.102,6.149,37.251,0,44.837,0
	h422.326c7.586,0,13.734,6.149,13.734,13.734v252.338c0,7.586-6.149,13.734-13.734,13.734s-13.734-6.149-13.734-13.734V27.469
	H58.571v457.062h394.857V349.393c0-7.586,6.149-13.734,13.734-13.734s13.734,6.149,13.734,13.734v148.872
	C480.898,505.851,474.749,512,467.163,512z"/>
<rect x="214.793" y="67.265" style="fill:#F4B2B0;" width="192.283" height="54.481"/>
<path style="fill:#B3404A;" d="M407.079,135.48H214.796c-7.586,0-13.734-6.149-13.734-13.734V67.266
	c0-7.586,6.149-13.734,13.734-13.734h192.283c7.586,0,13.734,6.149,13.734,13.734v54.481
	C420.813,129.331,414.664,135.48,407.079,135.48z M228.53,108.011h164.814v-27.01H228.53V108.011z"/>
<rect x="214.793" y="174.923" style="fill:#F4B2B0;" width="192.283" height="54.481"/>
<path style="fill:#B3404A;" d="M407.079,243.143H214.796c-7.586,0-13.734-6.149-13.734-13.734v-54.481
	c0-7.586,6.149-13.734,13.734-13.734h192.283c7.586,0,13.734,6.149,13.734,13.734v54.481
	C420.813,236.994,414.664,243.143,407.079,243.143z M228.53,215.674h164.814v-27.012H228.53V215.674z"/>
<rect x="214.793" y="282.587" style="fill:#F4B2B0;" width="192.283" height="54.481"/>
<g>
	<path style="fill:#B3404A;" d="M407.079,350.806H214.796c-7.586,0-13.734-6.149-13.734-13.734v-54.481
		c0-7.586,6.149-13.734,13.734-13.734h192.283c7.586,0,13.734,6.149,13.734,13.734v54.481
		C420.813,344.658,414.664,350.806,407.079,350.806z M228.53,323.337h164.814v-27.012H228.53V323.337z"/>
	<path style="fill:#B3404A;" d="M407.079,458.47H214.796c-7.586,0-13.734-6.149-13.734-13.734s6.149-13.734,13.734-13.734h178.548
		v-27.012H214.796c-7.586,0-13.734-6.149-13.734-13.734s6.149-13.734,13.734-13.734h192.283c7.586,0,13.734,6.149,13.734,13.734
		v54.481C420.813,452.321,414.664,458.47,407.079,458.47z"/>
	<path style="fill:#B3404A;" d="M159.858,135.48H104.92c-7.586,0-13.734-6.149-13.734-13.734V67.266
		c0-7.586,6.149-13.734,13.734-13.734h54.938c7.586,0,13.734,6.149,13.734,13.734v54.481
		C173.592,129.331,167.443,135.48,159.858,135.48z M118.654,108.011h27.469v-27.01h-27.469V108.011z"/>
	<path style="fill:#B3404A;" d="M159.858,243.143H104.92c-7.586,0-13.734-6.149-13.734-13.734v-54.481
		c0-7.586,6.149-13.734,13.734-13.734h54.938c7.586,0,13.734,6.149,13.734,13.734v54.481
		C173.592,236.994,167.443,243.143,159.858,243.143z M118.654,215.674h27.469v-27.012h-27.469V215.674z"/>
	<path style="fill:#B3404A;" d="M159.858,350.806H104.92c-7.586,0-13.734-6.149-13.734-13.734v-54.481
		c0-7.586,6.149-13.734,13.734-13.734h54.938c7.586,0,13.734,6.149,13.734,13.734v54.481
		C173.592,344.658,167.443,350.806,159.858,350.806z M118.654,323.337h27.469v-27.012h-27.469V323.337z"/>
</g>
<rect x="104.917" y="390.252" style="fill:#F4B2B0;" width="54.938" height="54.481"/>
<path style="fill:#B3404A;" d="M159.858,458.47H104.92c-7.586,0-13.734-6.149-13.734-13.734v-54.481
	c0-7.586,6.149-13.734,13.734-13.734h54.938c7.586,0,13.734,6.149,13.734,13.734v54.481
	C173.592,452.321,167.443,458.47,159.858,458.47z M118.654,431.001h27.469v-27.012h-27.469V431.001z"/>
</svg>